<svg width="800" height="560" viewBox="0 0 800 560" fill="none" xmlns="http://www.w3.org/2000/svg"><rect width="800" height="560" rx="32" fill="#F8FAFC"/><rect x="122" y="118" width="210" height="344" rx="28" fill="#FFFFFF" stroke="#D7E0EC" stroke-width="6"/><rect x="154" y="152" width="116" height="18" rx="9" fill="#CBD5E1"/><rect x="154" y="192" width="138" height="18" rx="9" fill="#E2E8F0"/><rect x="154" y="242" width="142" height="48" rx="16" fill="#DBEAFE"/><rect x="154" y="304" width="168" height="48" rx="16" fill="#EFF6FF"/><rect x="154" y="366" width="124" height="16" rx="8" fill="#CBD5E1"/><rect x="432" y="152" width="246" height="18" rx="9" fill="#CBD5E1"/><rect x="432" y="188" width="184" height="18" rx="9" fill="#E2E8F0"/><rect x="432" y="240" width="246" height="76" rx="22" fill="#FFFFFF" stroke="#D7E0EC" stroke-width="6"/><circle cx="476" cy="278" r="20" fill="#0F172A"/><rect x="512" y="268" width="134" height="14" rx="7" fill="#CBD5E1"/><rect x="432" y="336" width="210" height="14" rx="7" fill="#E2E8F0"/><rect x="432" y="364" width="160" height="14" rx="7" fill="#E2E8F0"/></svg>