<svg width="1200" height="900" viewBox="0 0 1200 900" fill="none" xmlns="http://www.w3.org/2000/svg">
  <rect width="1200" height="900" rx="48" fill="#F4F7FB"/>
  <rect x="186" y="120" width="828" height="640" rx="36" fill="#FFFFFF" stroke="#D7E0EC" stroke-width="8"/>
  <rect x="240" y="176" width="250" height="20" rx="10" fill="#CBD5E1"/>
  <rect x="240" y="220" width="420" height="26" rx="13" fill="#0F172A"/>
  <rect x="240" y="274" width="320" height="16" rx="8" fill="#CBD5E1"/>
  <rect x="240" y="316" width="224" height="18" rx="9" fill="#E2E8F0"/>
  <rect x="240" y="350" width="380" height="18" rx="9" fill="#E2E8F0"/>
  <rect x="240" y="384" width="296" height="18" rx="9" fill="#E2E8F0"/>
  <rect x="240" y="438" width="232" height="232" rx="28" fill="#FBFDFF" stroke="#D7E0EC" stroke-width="6"/>
  <rect x="284" y="482" width="144" height="144" rx="18" fill="#0F172A"/>
  <rect x="316" y="514" width="80" height="80" rx="10" fill="#FFFFFF"/>
  <rect x="242" y="704" width="378" height="8" rx="4" fill="#E2E8F0"/>
  <rect x="740" y="208" width="196" height="256" rx="28" fill="#F8FAFC" stroke="#D7E0EC" stroke-width="6"/>
  <circle cx="838" cy="282" r="54" fill="#DBEAFE"/>
  <path d="M812 282L832 302L870 260" stroke="#2563EB" stroke-width="14" stroke-linecap="round" stroke-linejoin="round"/>
  <rect x="768" y="364" width="140" height="16" rx="8" fill="#CBD5E1"/>
  <rect x="768" y="394" width="108" height="16" rx="8" fill="#E2E8F0"/>
  <rect x="742" y="514" width="350" height="118" rx="28" fill="#FFFFFF" stroke="#D7E0EC" stroke-width="8"/>
  <rect x="784" y="552" width="192" height="16" rx="8" fill="#CBD5E1"/>
  <rect x="784" y="582" width="150" height="16" rx="8" fill="#E2E8F0"/>
  <circle cx="748" cy="574" r="28" fill="#0F172A"/>
  <circle cx="748" cy="574" r="10" fill="#FFFFFF"/>
</svg>