<svg xmlns="http://www.w3.org/2000/svg" width="1600" height="900" viewBox="0 0 1600 900" fill="none">
  <defs>
    <linearGradient id="g" x1="90" y1="90" x2="1500" y2="820" gradientUnits="userSpaceOnUse">
      <stop stop-color="#F8FBFD"/>
      <stop offset="1" stop-color="#E5F1F6"/>
    </linearGradient>
  </defs>
  <rect width="1600" height="900" fill="url(#g)"/>
  <g stroke="#A6C3D0" stroke-opacity="0.4">
    <path d="M0 120H1600"/>
    <path d="M0 240H1600"/>
    <path d="M0 360H1600"/>
    <path d="M0 480H1600"/>
    <path d="M0 600H1600"/>
    <path d="M0 720H1600"/>
    <path d="M200 0V900"/>
    <path d="M400 0V900"/>
    <path d="M600 0V900"/>
    <path d="M800 0V900"/>
    <path d="M1000 0V900"/>
    <path d="M1200 0V900"/>
    <path d="M1400 0V900"/>
  </g>
  <path d="M0 900V630C220 520 360 650 560 600C750 554 900 420 1160 458C1360 486 1480 430 1600 380V900H0Z" fill="#CBE2EB" fill-opacity="0.5"/>
  <circle cx="1320" cy="190" r="130" fill="#8DB5C6" fill-opacity="0.22"/>
</svg>
