<svg width="900" height="620" viewBox="0 0 900 620" fill="none" xmlns="http://www.w3.org/2000/svg">
  <rect width="900" height="620" rx="36" fill="#F8FAFC"/>
  <rect x="110" y="110" width="298" height="400" rx="28" fill="#FFFFFF" stroke="#D7E0EC" stroke-width="6"/>
  <rect x="156" y="156" width="140" height="18" rx="9" fill="#CBD5E1"/>
  <rect x="156" y="196" width="176" height="18" rx="9" fill="#E2E8F0"/>
  <rect x="156" y="244" width="154" height="154" rx="18" fill="#FFFFFF" stroke="#0F172A" stroke-width="8"/>
  <rect x="178" y="266" width="108" height="108" rx="10" fill="#0F172A"/>
  <rect x="330" y="244" width="34" height="154" rx="17" fill="#DBEAFE"/>
  <rect x="156" y="424" width="196" height="16" rx="8" fill="#CBD5E1"/>
  <rect x="156" y="454" width="130" height="16" rx="8" fill="#E2E8F0"/>
  <circle cx="620" cy="206" r="92" fill="#EFF6FF"/>
  <circle cx="620" cy="206" r="60" fill="#DBEAFE"/>
  <path d="M620 154V214L662 236" stroke="#2563EB" stroke-width="18" stroke-linecap="round" stroke-linejoin="round"/>
  <rect x="492" y="350" width="296" height="156" rx="28" fill="#FFFFFF" stroke="#D7E0EC" stroke-width="6"/>
  <rect x="534" y="392" width="140" height="18" rx="9" fill="#CBD5E1"/>
  <rect x="534" y="430" width="178" height="18" rx="9" fill="#E2E8F0"/>
  <rect x="534" y="462" width="132" height="18" rx="9" fill="#E2E8F0"/>
  <circle cx="774" cy="428" r="26" fill="#0F172A"/>
</svg>