<svg width="900" height="620" viewBox="0 0 900 620" fill="none" xmlns="http://www.w3.org/2000/svg">
  <rect width="900" height="620" rx="36" fill="#F8FAFC"/>
  <rect x="92" y="92" width="214" height="436" rx="30" fill="#FFFFFF" stroke="#D7E0EC" stroke-width="6"/>
  <rect x="120" y="126" width="108" height="18" rx="9" fill="#CBD5E1"/>
  <rect x="120" y="164" width="154" height="18" rx="9" fill="#E2E8F0"/>
  <rect x="120" y="238" width="158" height="158" rx="24" fill="#DBEAFE"/>
  <circle cx="199" cy="317" r="44" fill="#0F172A"/>
  <path d="M178 317L195 334L221 298" stroke="#FFFFFF" stroke-width="12" stroke-linecap="round" stroke-linejoin="round"/>
  <rect x="122" y="430" width="138" height="16" rx="8" fill="#CBD5E1"/>
  <rect x="122" y="458" width="110" height="16" rx="8" fill="#E2E8F0"/>
  <path d="M372 180H498" stroke="#94A3B8" stroke-width="10" stroke-linecap="round" stroke-dasharray="1 28"/>
  <path d="M372 308H498" stroke="#94A3B8" stroke-width="10" stroke-linecap="round" stroke-dasharray="1 28"/>
  <path d="M372 436H498" stroke="#94A3B8" stroke-width="10" stroke-linecap="round" stroke-dasharray="1 28"/>
  <circle cx="588" cy="180" r="54" fill="#EFF6FF"/>
  <circle cx="588" cy="308" r="54" fill="#EFF6FF"/>
  <circle cx="588" cy="436" r="54" fill="#EFF6FF"/>
  <path d="M564 180L582 198L613 166" stroke="#2563EB" stroke-width="14" stroke-linecap="round" stroke-linejoin="round"/>
  <path d="M564 308L582 326L613 294" stroke="#2563EB" stroke-width="14" stroke-linecap="round" stroke-linejoin="round"/>
  <path d="M564 436L582 454L613 422" stroke="#2563EB" stroke-width="14" stroke-linecap="round" stroke-linejoin="round"/>
  <rect x="694" y="126" width="132" height="390" rx="28" fill="#FFFFFF" stroke="#D7E0EC" stroke-width="6"/>
  <rect x="722" y="164" width="76" height="76" rx="12" fill="#0F172A"/>
  <rect x="722" y="264" width="76" height="16" rx="8" fill="#CBD5E1"/>
  <rect x="722" y="294" width="58" height="16" rx="8" fill="#E2E8F0"/>
  <rect x="722" y="336" width="76" height="76" rx="12" fill="#DBEAFE"/>
</svg>