<svg width="900" height="620" viewBox="0 0 900 620" fill="none" xmlns="http://www.w3.org/2000/svg">
  <rect width="900" height="620" rx="36" fill="#F8FAFC"/>
  <rect x="116" y="130" width="264" height="360" rx="28" fill="#FFFFFF" stroke="#D7E0EC" stroke-width="6"/>
  <rect x="154" y="174" width="126" height="18" rx="9" fill="#CBD5E1"/>
  <rect x="154" y="216" width="178" height="18" rx="9" fill="#E2E8F0"/>
  <rect x="154" y="264" width="96" height="96" rx="18" fill="#DBEAFE"/>
  <rect x="268" y="264" width="96" height="96" rx="18" fill="#EFF6FF"/>
  <rect x="154" y="378" width="210" height="16" rx="8" fill="#CBD5E1"/>
  <rect x="154" y="408" width="154" height="16" rx="8" fill="#E2E8F0"/>
  <rect x="474" y="116" width="264" height="388" rx="28" fill="#FFFFFF" stroke="#D7E0EC" stroke-width="6"/>
  <path d="M600 178V286" stroke="#2563EB" stroke-width="18" stroke-linecap="round"/>
  <path d="M560 256L600 298L640 256" stroke="#2563EB" stroke-width="18" stroke-linecap="round" stroke-linejoin="round"/>
  <rect x="534" y="318" width="132" height="18" rx="9" fill="#CBD5E1"/>
  <rect x="534" y="352" width="176" height="18" rx="9" fill="#E2E8F0"/>
  <rect x="534" y="384" width="142" height="18" rx="9" fill="#E2E8F0"/>
  <rect x="534" y="430" width="182" height="48" rx="24" fill="#0F172A"/>
  <circle cx="622" cy="240" r="50" fill="#EFF6FF"/>
</svg>